{"title":"Rugby.Union.Aviva.Premiership.Highlights.R15.2013.02.18.pdtv.x26","uid":8158084,"size":457045718,"categoryP":"video","categoryS":"tv_shows","magnet":"?xt=urn:btih:665dc7b65fa5d40d8aa863404ac90cd5143db952&amp;dn=Rugby.Union.Aviva.Premiership.Highlights.R15.2013.02.18.pdtv.x26&amp;tr=udp%3A%2F%2Ftracker.openbittorrent.com%3A80&amp;tr=udp%3A%2F%2Fopen.demonii.com%3A1337&amp;tr=udp%3A%2F%2Ftracker.coppersurfer.tk%3A6969&amp;tr=udp%3A%2F%2Fexodus.desync.com%3A6969","seeders":1,"leechers":1,"uploader":"rugbybill","files":2,"time":1361197566,"description":"SPORT: Rugby Highlights - Aviva Premiership\nOn: itv \nDate: Monday 18th February 2013 \nTime: 00:15 to 01:20 \n\nAction from this weekend's Round 15 games including Harlequins against Leicester, and Saracens' sold out first league match at their new stadium against Exeter Chiefs. Presented by Martin Bayfield and Craig Doyle.\n\nGeneral\nComplete name: 2013.02.18.Rugby.Union.Aviva.Highlights.pdtv.x264.mp4\nFormat : MPEG-4\nFormat profile : Base Media\nCodec ID : isom\nFile size: 436 MiB\nDuration : 45mn 35s\nOverall bit rate mode: Variable\nOverall bit rate : 1 337 Kbps\n\nVideo\nID : 1\nFormat : AVC\nFormat/Info: Advanced Video Codec\nFormat profile : &lt;a class=&quot;__cf_email__&quot; href=&quot;/cdn-cgi/l/email-protection&quot; data-cfemail=&quot;e9a1808e81a9a5dac7d8&quot;&gt;[email&amp;#160;protected]&lt;/a&gt;&lt;script cf-hash='f9e31' type=&quot;text/javascript&quot;&gt;\n/* &lt;![CDATA[ */!function(){try{var t=&quot;currentScript&quot;in document?document.currentScript:function(){for(var t=document.getElementsByTagName(&quot;script&quot;),e=t.length;e--;)if(t[e].getAttribute(&quot;cf-hash&quot;))return t[e]}();if(t&amp;&amp;t.previousSibling){var e,r,n,i,c=t.previousSibling,a=c.getAttribute(&quot;data-cfemail&quot;);if(a){for(e=&quot;&quot;,r=parseInt(a.substr(0,2),16),n=2;a.length-n;n+=2)i=parseInt(a.substr(n,2),16)^r,e+=String.fromCharCode(i);e=document.createTextNode(e),c.parentNode.replaceChild(e,c)}}}catch(u){}}();/* ]]&gt; */&lt;/script&gt;\nFormat settings, CABAC : Yes\nFormat settings, ReFrames: 15 frames\nCodec ID : avc1\nCodec ID/Info: Advanced Video Coding\nDuration : 45mn 22s\nBit rate : 1 215 Kbps\nMaximum bit rate : 4 174 Kbps\nWidth: 720 pixels\nHeight : 416 pixels\nDisplay aspect ratio : 1.731\nFrame rate mode: Constant\nFrame rate : 25.000 fps\nColor space: YUV\nChroma subsampling : 4:2:0\nBit depth: 8 bits\nScan type: Progressive\nBits/(Pixel*Frame) : 0.162\nStream size: 394 MiB (90%)\nWriting library: x264 core 129 r2245 bc13772\n\nAudio\nID : 2\nFormat : AAC\nFormat/Info: Advanced Audio Codec\nFormat profile : LC\nCodec ID : 40\nDuration : 45mn 22s\nBit rate mode: Variable\nBit rate : 124 Kbps\nMaximum bit rate : 130 Kbps\nChannel(s) : 2 channels\nChannel positions: Front: L R\nSampling rate: 48.0 KHz\nCompression mode : Lossy\nStream size: 40.2 MiB (9%)\n\n","torrent":{"xt":"urn:btih:665dc7b65fa5d40d8aa863404ac90cd5143db952","amp;dn":"Rugby.Union.Aviva.Premiership.Highlights.R15.2013.02.18.pdtv.x26","amp;tr":["udp%3A%2F%2Ftracker.openbittorrent.com%3A80","udp%3A%2F%2Fopen.demonii.com%3A1337","udp%3A%2F%2Ftracker.coppersurfer.tk%3A6969","udp%3A%2F%2Fexodus.desync.com%3A6969"],"infoHash":"665dc7b65fa5d40d8aa863404ac90cd5143db952","infoHashBuffer":{"type":"Buffer","data":[102,93,199,182,95,165,212,13,138,168,99,64,74,201,12,213,20,61,185,82]},"announce":[],"urlList":[]}}